<svg width="16" height="12" viewBox="0 0 16 12" fill="none" xmlns="http://www.w3.org/2000/svg">
<path d="M0 10V2C0 0.895431 0.895431 0 2 0H14C15.1046 0 16 0.895431 16 2V10C16 11.1046 15.1046 12 14 12H2C0.895431 12 0 11.1046 0 10ZM4.79062 3.09314C4.63821 2.98427 4.43774 2.96972 4.27121 3.05542C4.10467 3.14112 4 3.31271 4 3.5V8.5C4 8.68729 4.10467 8.85888 4.27121 8.94459C4.43774 9.03029 4.63821 9.01573 4.79062 8.90687L7.5 6.9716V8.5C7.5 8.68729 7.60467 8.85888 7.77121 8.94459C7.93775 9.03029 8.13821 9.01573 8.29062 8.90687L11 6.9716V8.5C11 8.77614 11.2239 9 11.5 9C11.7761 9 12 8.77614 12 8.5V3.5C12 3.22386 11.7761 3 11.5 3C11.2239 3 11 3.22386 11 3.5V5.02841L8.29062 3.09314C8.13821 2.98427 7.93775 2.96972 7.77121 3.05542C7.60467 3.14112 7.5 3.31271 7.5 3.5V5.02841L4.79062 3.09314Z" fill="black"/>
</svg>
