<svg width="12" height="16" viewBox="0 0 12 16" fill="none" xmlns="http://www.w3.org/2000/svg">
<path d="M3 6C2.74784 6 2.53514 6.18777 2.50386 6.43798L2.00386 10.438C1.98608 10.5803 2.03025 10.7234 2.12516 10.8309C2.22008 10.9384 2.35659 11 2.5 11H5.5V13.0158C4.63739 13.0713 4 13.267 4 13.5C4 13.7761 4.89543 14 6 14C7.10457 14 8 13.7761 8 13.5C8 13.267 7.36262 13.0713 6.5 13.0158V11H9.5C9.64342 11 9.77993 10.9384 9.87484 10.8309C9.96976 10.7234 10.0139 10.5803 9.99614 10.438L9.49614 6.43798C9.46486 6.18777 9.25216 6 9 6H3ZM5 9.77923V7.22077C5 7.12361 5.106 7.0636 5.18931 7.11359L7.32136 8.39281C7.40227 8.44136 7.40227 8.55864 7.32136 8.60719L5.18931 9.88641C5.106 9.9364 5 9.87639 5 9.77923Z" fill="black"/>
<path d="M12 14V4.5L7.5 0H2C0.895431 0 0 0.89543 0 2V14C0 15.1046 0.895431 16 2 16H10C11.1046 16 12 15.1046 12 14ZM7.5 3C7.5 3.82843 8.17157 4.5 9 4.5H11V14C11 14.5523 10.5523 15 10 15H2C1.44772 15 1 14.5523 1 14V2C1 1.44772 1.44772 1 2 1H7.5V3Z" fill="black"/>
</svg>
